<?xml version="1.0" encoding="UTF-8"?>
<svg id="Layer_1" data-name="Layer 1" xmlns="http://www.w3.org/2000/svg" viewBox="0 0 383.25 357.35">
  <defs>
    <style>
      .cls-1 {
        fill: #c4d2dc;
      }

      .cls-2 {
        fill: #27a6fd;
      }

      .cls-3 {
        fill: #0874cd;
      }

      .cls-4 {
        fill: #0055a3;
      }

      .cls-5 {
        fill: #fbde32;
      }

      .cls-6 {
        fill: #efefef;
      }

      .cls-7 {
        fill: #3f5a5a;
      }

      .cls-8 {
        fill: #0793fb;
      }

      .cls-9 {
        fill: #c6d4de;
      }

      .cls-10 {
        fill: #678d98;
      }

      .cls-11 {
        fill: #b6c4cf;
      }

      .cls-12 {
        fill: #d6aa04;
      }

      .cls-13 {
        fill: #c5d3dd;
      }

      .cls-14 {
        fill: #b7c4cf;
      }

      .cls-15 {
        fill: #0155a3;
      }

      .cls-16 {
        fill: #b6c4ce;
      }

      .cls-17 {
        fill: #fcde32;
      }

      .cls-18 {
        fill: #6d909b;
      }

      .cls-19 {
        fill: #fef2ee;
      }
    </style>
  </defs>
  <path class="cls-1" d="M88.94,195.84c-.36,3.81-.58,7.63-.65,11.46H7.53c-3.55,0-5.7-1.28-7.53-3.9v-3.74c1.82-2.54,4.01-3.86,7.53-3.86l81.41.05Z"/>
  <path class="cls-2" d="M225.31,62.74c76.01,6.87,134.86,70,135.03,147.02.16,74.42-55.82,138.46-130.85,146.62l-1.12.12c-.33.04-.23.55-.21.65-54.03-2.79-102.19-34.93-125.5-83.76-1.82-3.8-3.47-7.68-4.95-11.63-2.29-6.08-4.17-12.31-5.64-18.65-.86-3.73-1.58-7.5-2.15-11.28-1.22-8.12-1.77-16.33-1.62-24.54.07-3.83.28-7.65.65-11.46.79-8.28,2.28-16.48,4.45-24.51,1.04-3.83,2.23-7.62,3.57-11.35,2.3-6.39,5.03-12.61,8.18-18.62,2.02-3.86,4.22-7.62,6.57-11.29,5.09-7.91,10.93-15.32,17.43-22.12,8.17-8.55,17.34-16.09,27.32-22.45,18.63-11.88,39.68-19.42,61.61-22.07,2.4-.29,4.82-.52,7.23-.69ZM228.27,95.44c-60.4,3.38-107.73,54.62-107.4,115.05.33,60.63,48.49,111.37,109.12,113.92,3.47.15,7.21.49,10.71.33,64.52-2.89,113.21-57.68,109.9-121.03-3.32-63.67-59.03-113.42-122.33-108.27Z"/>
  <path class="cls-8" d="M253.12,63.4c21.7,2.57,42.56,9.93,61.06,21.55,10.15,6.37,19.48,13.96,27.8,22.59,42,43.6,53.1,108.43,27.98,163.52-25.12,55.08-81.34,89.22-141.8,86.1-.02-.1-.12-.61.21-.65l1.12-.12c75.03-8.16,131.01-72.19,130.85-146.62-.16-77.03-59.02-140.16-135.03-147.02,9.27-.66,18.58-.44,27.81.65Z"/>
  <path class="cls-1" d="M89.92,231.83c.57,3.79,1.29,7.55,2.15,11.28l-62.76.13c-3.25,0-5.45-3.17-5.42-5.74.02-2.3,2.13-5.63,5.37-5.63l60.66-.04Z"/>
  <path class="cls-1" d="M96.97,159.98c-1.34,3.73-2.53,7.52-3.57,11.35l-58.14-.1c-3.28,0-5.51-3.12-5.53-5.65s2.16-5.75,5.48-5.75l61.76.14Z"/>
  <g>
    <g>
      <path class="cls-3" d="M260.52.21c2.28,2.64,6.12,5.1,6.19,9.08l.26,14.44c.14,7.67-5.48,8.83-6.25,11.75l-7.53.13-35.15.14-25.66-.45c-5.79-.1-10.66-4.93-10.66-10.73v-13.57c0-6.34,5.12-11.01,11.4-10.99l67.39.2Z"/>
      <path class="cls-4" d="M253.19,35.61l-.07,27.79c-9.23-1.09-18.54-1.31-27.81-.65-2.42.17-4.83.4-7.23.69l-.03-27.69,35.15-.14Z"/>
      <path class="cls-15" d="M260.73,35.48c.77-2.91,6.39-4.08,6.25-11.75l-.26-14.44c-.07-3.99-3.91-6.44-6.19-9.08L278.49,0c6.12-.07,11.33,4.7,11.32,10.98l-.02,13.57c0,5.98-5.01,10.73-10.86,10.78l-18.21.15Z"/>
    </g>
    <g>
      <path class="cls-12" d="M353.29,94.1c-9-8.14-17.76-16.04-27.01-23.18-2.36-3.94-13.56-8.56-8.09-14.94l12.09-14.09c2.29-2.67,5.89-3,8.63-.65l41.78,35.91c2.64,2.27,2.97,5.88.74,8.49l-11.68,13.66c-6.27,7.34-11.92-3.39-16.47-5.21Z"/>
      <path class="cls-5" d="M353.29,94.1c-3.83,4.24-7.66,8.57-11.31,13.44-8.31-8.63-17.65-16.21-27.8-22.59l12.1-14.03c9.26,7.14,18.01,15.04,27.01,23.18Z"/>
    </g>
    <g>
      <path class="cls-12" d="M143.72,70.91c-9.47,7.59-17.79,16.01-26.91,23.14l-7.12,5.56c-3.2,2.5-6.83,2.8-9.37-.16l-11.8-13.76c-2.05-2.4-2.13-6.05.43-8.26l42.17-36.27c2.46-2.11,6.12-2.05,8.24.41l12.45,14.48c5.43,6.32-6.43,11.43-8.09,14.85Z"/>
      <path class="cls-17" d="M156.46,85.5c-9.97,6.36-19.14,13.9-27.32,22.45-4.53-4.6-8.45-9.26-12.34-13.9,9.12-7.13,17.45-15.55,26.91-23.14,4,4.93,8.11,9.86,12.75,14.6Z"/>
    </g>
  </g>
  <path class="cls-13" d="M111.72,130.07c-2.36,3.66-4.55,7.43-6.57,11.29l-31.64-.27c-3.38-.01-5.56-3.61-5.28-6.12.3-2.69,2.7-5.25,5.86-5.23l37.63.34Z"/>
  <path class="cls-9" d="M97.71,261.76c1.48,3.95,3.14,7.83,4.95,11.63l-35.01-.07c-3.17-.02-5.38-3.43-5.26-5.85.14-2.73,2.55-5.48,5.74-5.49l29.58-.21Z"/>
  <g>
    <path class="cls-19" d="M228.27,95.44c27.71,5.3,52.94,17.36,71.53,39.54.59.71.97,1.81.99,2.54l-6.89,7.18c-2.16,2.25-1.2,5.96.85,7.49,2.57,1.92,5.53,1.11,7.75-1.09l5.8-5.28c11.23,17.62,18.74,37.81,18.97,58.76-1.27-.02-2.86.16-4.75.4-1.99.25-3.78,2.9-3.88,4.8-.09,1.68,1.44,4.81,3.23,5.1l5.34.67c-.51,20.57-7.33,41.41-19.26,58.13-3.31-1.49-7.58-10.27-13.02-5.35-2.43,2.2-2.2,5.74.22,8.18l5.89,6.38c-16.81,21.57-42.36,35.71-69.62,40.36l-1.59.27c-.25.04.11.72.15.9-60.62-2.55-108.79-53.29-109.12-113.92-.33-60.43,47-111.66,107.4-115.05ZM241.11,122.3l.04-14.01c0-3.52-2.47-5.99-5.68-5.81-2.89.16-5.05,2.53-5.04,5.8l.07,14.31c.02,3.29,2.81,5.33,5.65,5.18,2.43-.13,4.95-2.14,4.96-5.47ZM177.45,144.61l-10.7-10.63c-2.02-2.01-5.74-1.38-7.45.59-1.6,1.84-1.75,5.23.27,7.25l10.53,10.5c2.18,2.17,5.74,1.65,7.46-.15,1.91-2,2.07-5.41-.1-7.57ZM230,199.46c-4.79,4.01-5.63,9-4.05,14.82,1.28,4.71,10.42,7.5,14.3,6.31l39.36,39.96c2.44,2.47,5.96,2.51,8.2.49,2.48-2.24,2.58-6.08-.05-8.66l-39.93-39.27c1.61-5.22-1.17-11.52-6.24-14.22l-.13-35.88c-.01-3.54-2.93-5.84-6.02-5.69-2.75.13-5.41,2.41-5.41,5.69l-.03,36.47ZM148.56,215.96c3.31-.02,5.09-3.17,4.98-5.45-.13-2.68-2.27-5.12-5.29-5.12l-14.31-.04c-3.5,0-5.93,2.54-5.71,5.84.17,2.6,2.52,4.9,5.7,4.88l14.62-.1ZM167.67,286.84l10.3-10.29c2-2,1.89-5.43.34-7.24-1.7-1.99-5.51-2.69-7.52-.66l-11.19,11.25c-1.95,1.96-1.13,5.73.81,7.35,1.79,1.5,5.06,1.78,7.26-.41ZM241.8,312.37l-.03-13.93c0-3.43-2.62-5.6-5.64-5.46-2.63.12-5,2.32-5,5.43v14.33c0,3.46,2.63,5.71,5.77,5.5,2.62-.18,4.91-2.34,4.9-5.86Z"/>
    <path class="cls-6" d="M229.99,324.41c-.04-.18-.4-.86-.15-.9l1.59-.27c27.26-4.64,52.81-18.78,69.62-40.36,2.71,1.25,6.44,8.27,11.46,3.69,2.24-2.04,2.24-5.43-.1-7.88-1.53-1.61-2.94-3.2-4.45-5.01,11.93-16.72,18.75-37.56,19.26-58.13l11.16-.2c3.15-.06,5.46-2.14,5.63-5.02.18-3.12-2.18-5.54-5.64-5.59l-11.09-.16c-.24-20.95-7.75-41.14-18.97-58.76,1.13-2.77,8.75-6.68,4.01-11.86-1.89-2.06-5.37-2.27-7.62-.13l-3.9,3.7c-.02-.74-.4-1.84-.99-2.54-18.59-22.18-43.82-34.24-71.53-39.54,63.3-5.15,119,44.6,122.33,108.27,3.31,63.35-45.37,118.14-109.9,121.03-3.5.16-7.25-.19-10.71-.33Z"/>
    <g>
      <path class="cls-10" d="M240.26,220.58c2.47-.76,6.7-4.63,7.58-7.48l39.93,39.27c2.62,2.58,2.53,6.42.05,8.66-2.24,2.02-5.76,1.98-8.2-.49l-39.36-39.96Z"/>
      <path class="cls-18" d="M241.6,198.88c-3.45-1.84-7.8-1.01-11.6.58l.03-36.47c0-3.27,2.67-5.55,5.41-5.69,3.09-.15,6.01,2.14,6.02,5.69l.13,35.88Z"/>
      <path class="cls-7" d="M241.6,198.88c5.07,2.71,7.85,9,6.24,14.22-.88,2.85-5.12,6.72-7.58,7.48-3.88,1.19-13.02-1.59-14.3-6.31-1.58-5.81-.74-10.81,4.05-14.82,3.8-1.59,8.14-2.42,11.6-.58Z"/>
    </g>
    <path class="cls-14" d="M177.45,144.61c2.17,2.16,2.01,5.57.1,7.57-1.72,1.8-5.28,2.32-7.46.15l-10.53-10.5c-2.02-2.01-1.87-5.4-.27-7.25,1.71-1.97,5.42-2.6,7.45-.59l10.7,10.63Z"/>
    <path class="cls-14" d="M308.32,145.82l-5.8,5.28c-2.22,2.21-5.18,3.01-7.75,1.09-2.05-1.53-3.01-5.23-.85-7.49l6.89-7.18,3.9-3.7c2.25-2.14,5.74-1.93,7.62.13,4.74,5.18-2.87,9.1-4.01,11.86Z"/>
    <path class="cls-14" d="M167.67,286.84c-2.2,2.19-5.46,1.91-7.26.41-1.94-1.62-2.77-5.39-.81-7.35l11.19-11.25c2.02-2.03,5.82-1.34,7.52.66,1.55,1.81,1.65,5.25-.34,7.24l-10.3,10.29Z"/>
    <path class="cls-11" d="M307.97,273.68c1.51,1.81,2.92,3.4,4.45,5.01,2.34,2.45,2.34,5.84.1,7.88-5.03,4.58-8.75-2.44-11.46-3.69l-5.89-6.38c-2.42-2.44-2.65-5.98-.22-8.18,5.45-4.92,9.71,3.86,13.02,5.35Z"/>
    <path class="cls-11" d="M327.29,204.57l11.09.16c3.46.05,5.82,2.47,5.64,5.59-.17,2.88-2.48,4.97-5.63,5.02l-11.16.2-5.34-.67c-1.79-.3-3.33-3.42-3.23-5.1.1-1.9,1.89-4.56,3.88-4.8,1.89-.23,3.48-.41,4.75-.4Z"/>
    <path class="cls-14" d="M148.56,215.96l-14.62.1c-3.18.02-5.53-2.27-5.7-4.88-.22-3.3,2.21-5.85,5.71-5.84l14.31.04c3.01,0,5.16,2.44,5.29,5.12.11,2.29-1.67,5.43-4.98,5.45Z"/>
    <path class="cls-16" d="M241.11,122.3c0,3.34-2.53,5.34-4.96,5.47-2.84.15-5.63-1.89-5.65-5.18l-.07-14.31c-.02-3.28,2.15-5.64,5.04-5.8,3.21-.18,5.69,2.28,5.68,5.81l-.04,14.01Z"/>
    <path class="cls-16" d="M241.8,312.37c0,3.52-2.28,5.68-4.9,5.86-3.14.21-5.76-2.04-5.76-5.5v-14.33c0-3.11,2.36-5.31,4.99-5.43,3.02-.14,5.63,2.03,5.64,5.46l.03,13.93Z"/>
  </g>
</svg>